<?xml version="1.0" encoding="UTF-8"?>
<svg id="Layer_1" xmlns="http://www.w3.org/2000/svg" version="1.1" viewBox="0 0 50 50">
  <!-- Generator: Adobe Illustrator 29.8.3, SVG Export Plug-In . SVG Version: 2.1.1 Build 3)  -->
  <path d="M35.1,7.2c1,1,1.8,2.3,2.2,3.6s0,.6.1.9c.1.4,0,.8,0,1.3-.4,5.1-6.4,8.3-10.9,9.6s-8.3,1.5-12-.1-4.7-3.5-5.1-6.4c-.8-6.1,6.4-9.6,11.4-10.9,4.5-1.2,10.6-1.4,14.2,2ZM34.7,8.9c-3.2-4-9.7-3.6-14.2-2.3s-7.4,2.9-9.1,6.1-.7,2.7-.3,3.8,0,.4.2.4c.2,0,.9-.2,1.1-.2,6.2-1.7,11.9-4.9,18.3-6.3s2.9-.5,4.3-.8c.1,0-.3-.6-.3-.7ZM35.8,11c0,0,0-.2,0-.2,0,0-.4,0-.5,0-4.5.9-8.8,3.1-13.1,4.8-2.4.9-4.9,1.6-7.5,2.1s-1.8.3-2.7.5,0,0-.1,0c0,.1.1.3.2.4,2.8,3.8,7.6,4,12,3.1s10.5-3.3,11.8-8,.2-2.2,0-2.8Z"/>
  <path d="M21.3,28.4c1.7,1.5,3.2,3.4,4.1,5.5s.6,1.4.7,2.2c.3,2,0,4.2-1.4,5.8-3.4,4.2-8.9,4.7-13.6,2.6S1.7,37.6,1,32.6s.7-5.3,2.9-7c4.6-3.6,11.1-2.2,15.5,1.1s1.3,1.1,1.9,1.6ZM18.7,28c-2.2-1.7-4.7-2.9-7.6-3.1s-3.7.2-5,1-.4.2-.2.4c1.2,1.5,2.6,2.8,4.1,4,3.2,2.7,6.6,4.9,9.3,8s1.8,2.4,2.8,3.5.2.4.3.3.4-.3.4-.3c.8-.8,1.7-2.2,1.8-3.3.2-1.9-.3-3.6-1.2-5.2s-2.9-3.8-4.7-5.2ZM4.7,27s0,0-.1,0c-.4.3-.7.7-1,1.1-.9,1.3-1.2,2.4-1.1,4s1.4,4.4,2.8,6.1c3.3,4.1,9.3,7.7,14.7,5.5s.9-.4,1.2-.6c0-.1,0,0,0-.1-.4-.6-.9-1-1.4-1.5-3.4-3.2-7.2-5.9-10.5-9.2s-3-3.3-4.3-5.1,0-.1-.1-.2Z"/>
  <path d="M46,24c1.5,1.3,2.6,3.4,2.9,5.3s.2,2.4,0,3.5c-.4,4.3-2.9,9-6.8,11.2-4.5,2.6-11.7,1.3-14.2-3.5s-.9-2.3-1-3.4c-.2-3.5.5-6.8,2.4-9.7,1.9-3,4.9-5.3,8.4-5.8,2.8-.4,6.1.4,8.3,2.3ZM40.3,23c-.1,0-.2,0-.3,0-6.8-.5-11.3,6.3-11.5,12.3s0,3,.7,4.3,2.1,3,3.7,3.7.8.3,1.3.5c0,0,0,0,0-.1.2-.2.3-.6.4-.9.7-2,1.1-4.1,1.6-6.1s.3-1.7.5-2.6.3-1.3.4-1.9c.2-.9.4-1.8.7-2.7.5-1.7,1.2-3.4,2-5s.4-.8.6-1.3,0,0,0,0ZM44.9,24.9c-.6-.6-2-1.3-2.8-1.5s-.2,0-.4.3c-1,2-1.5,4.4-1.9,6.6s-.3,1.5-.4,2.2-.1,1.4-.3,2.1-.2.7-.2,1c-.4,2.1-1.1,3.9-2,5.9s-.9,1.6-1.2,2.4,0,.3,0,.3c.6,0,1.2,0,1.8,0,3.5-.1,6-2.2,7.8-5s2.4-5.4,2.3-8.2,0-.5,0-.6c0-.3,0-.7-.1-1-.4-1.6-1.2-3.1-2.4-4.2Z"/>
</svg>