<?xml version="1.0" encoding="UTF-8"?>
<svg xmlns="http://www.w3.org/2000/svg" version="1.1" viewBox="0 0 513.88 371.92">
  <defs>
    <style>
      .cls-1 {
        fill: none;
        stroke: #000;
        stroke-miterlimit: 10;
        stroke-width: 8.52px;
      }
    </style>
  </defs>
  <!-- Generator: Adobe Illustrator 28.7.10, SVG Export Plug-In . SVG Version: 1.2.0 Build 236)  -->
  <g>
    <g id="Layer_1">
      <path class="cls-1" d="M14.56,100.41v210.99c0,26.58,108.04,48.13,241.32,48.13s241.32-21.55,241.32-48.13"/>
      <path d="M255.82,16.43c65.34,0,126.67,5.4,172.71,15.19,53.48,11.38,65.19,24.32,65.19,28.35v36.68l-.02.23c-.25,2.53-4.55,7.41-15.81,12.84-11.88,5.73-29.55,11.13-51.1,15.63-45.83,9.56-106.55,14.83-170.96,14.83s-125.13-5.27-170.96-14.83c-21.55-4.5-39.22-9.9-51.1-15.63-11.26-5.43-15.55-10.31-15.81-12.84l-.02-.23v-36.68c0-4.03,11.71-16.97,65.19-28.35,46.03-9.8,107.37-15.19,172.71-15.19M255.82,7.43C119.47,7.43,8.93,30.95,8.93,59.97v37.81h.07c2.86,28.49,112.27,51.4,246.82,51.4s243.96-22.91,246.82-51.4h.07v-37.81h0c0-29.02-110.54-52.54-246.89-52.54h0Z"/>
      <path d="M256.01,15.59c65.34,0,126.67,5.4,172.71,15.19,53.48,11.38,65.19,24.32,65.19,28.35s-11.71,16.97-65.19,28.35c-46.03,9.8-107.37,15.19-172.71,15.19s-126.67-5.4-172.71-15.19c-53.48-11.38-65.19-24.32-65.19-28.35s11.71-16.97,65.19-28.35c46.03-9.8,107.37-15.19,172.71-15.19M256.01,6.59C119.66,6.59,9.12,30.11,9.12,59.13s110.54,52.54,246.89,52.54,246.89-23.52,246.89-52.54S392.37,6.59,256.01,6.59h0Z"/>
      <line class="cls-1" x1="497.2" y1="311.39" x2="497.2" y2="100.41"/>
    </g>
  </g>
</svg>